<?xml version="1.0" encoding="UTF-8" standalone="no"?>
<!-- Created with Inkscape (http://www.inkscape.org/) -->
<svg id="svg2" xmlns:rdf="http://www.w3.org/1999/02/22-rdf-syntax-ns#" xmlns="http://www.w3.org/2000/svg" xml:space="preserve" height="106.3" width="354.33" version="1.1" xmlns:cc="http://creativecommons.org/ns#" xmlns:dc="http://purl.org/dc/elements/1.1/"><metadata id="metadata8"><rdf:RDF><cc:Work rdf:about=""><dc:format>image/svg+xml</dc:format><dc:type rdf:resource="http://purl.org/dc/dcmitype/StillImage"/><dc:title/></cc:Work></rdf:RDF></metadata><g id="g10" transform="matrix(1.25,0,0,-1.25,0,106.29925)"><g id="g12" fill-rule="nonzero"><path id="path14" fill="#17194a" d="m0,85.039,283.46,0v-85.039h-283.46v85.039z"/><path id="path16" fill="#FFF" d="m77.59,62.367-2.5225,0.0017c-1.321-0.003-2.886-0.123-2.884-2.465l-0.0009-13.031c-2.1622,0.0609-4.5669,0.0581-7.264,0.0626-2.706,0.0003-5.1058-0.0042-7.263-0.0601l-0.003,13.031c-0.002,1.3184-0.4175,2.461-2.52,2.4585l-2.5809,0.0006c-1.323-0.002-2.948-0.124-2.946-2.46l0.002-35.006c0.002-2.1033,0.959-2.6428,2.9395-2.6459l2.5813,0.0031c1.7424-0.0003,2.5225,0.8425,2.5222,2.6436l0.0023,15.548c2.1657-0.0609,4.5652-0.0578,7.2624-0.0626,2.7076,0.0048,5.1074,0.0042,7.2725,0.0635l-0.003-15.552c-0.0023-2.1021,0.8969-2.6427,2.8828-2.6424l2.5212,0.0037c1.7385,0.0008,2.5812,0.8419,2.5806,2.639l-0.002,35.005c0.0029,1.3184-0.4802,2.4653-2.5784,2.4624zm34.207-24.501c0.003,3.8454-0.3589,7.626-2.2227,10.327-1.7419,2.4682-4.7429,3.7234-9.7327,3.7251-5.2767,0-8.5834-1.3808-10.381-3.9615-1.8595-2.6444-2.4046-6.1854-2.4001-11.473-0.0019-5.9428,0.8419-9.8481,3.3628-12.185,1.9805-1.8641,5.2239-2.8196,9.7265-2.8244,2.5855,0.0045,6.1277,0.2432,9.0655,0.7854,1.8575,0.298,2.1597,1.2581,2.1614,2.6351-0.003,0.663,0.002,1.3825-0.1176,1.9857-0.18,0.7821-0.7215,1.8604-1.6226,1.8609-0.7197,0.0009-1.4428-0.2999-2.105-0.4209-2.2224-0.4788-4.6826-0.9604-7.3259-0.9592-1.436,0.0008-2.7618,0.3001-3.6008,0.6613-1.8595,0.8373-2.0427,3.1824-1.9811,6.1852l14.652-0.002c2.0982-0.0028,2.5246,0.3594,2.5215,3.6604zm-7.3256,1.6239-9.8476,0.0006-0.0028,0.5406c0.0003,4.3857,0.9014,5.8847,5.2299,5.8833,4.0833-0.0009,4.6185-1.5648,4.6185-5.2844,0,0,0.005-0.7217,0.002-1.1401zm20.438,24.071-2.7017,0.0042c-1.7425,0.0003-2.6402-0.5394-2.6388-2.5806l-0.002-36.023c-0.0008-2.4046,1.0222-2.7059,3.1796-2.704l2.1609,0.002c1.8646-0.0037,2.3459,1.0171,2.3459,2.6955l-0.002,36.029c0.003,1.1395-0.4816,2.5824-2.3422,2.577zm41.667-11.644c-3.7871-0.0008-6.9035-1.7419-9.2458-3.24-1.0828,2.0387-3.0027,3.24-5.7625,3.2403-3.3046,0.0014-6.1838-1.4363-8.4107-2.7624-0.4805,1.3799-0.775,1.8601-2.0358,1.863l-2.706,0.0003c-1.7388-0.0012-2.641-0.6044-2.639-2.5804l0.002-23.543c-0.005-1.8593,0.2967-2.6362,2.2736-2.6402l3.0663,0.0023c1.8598,0,2.3417,0.9623,2.3417,2.6419l-0.002,17.414c1.6866,1.3218,4.0856,3.2437,6.0086,3.2403,0.4774,0.0025,0.7809-0.298,1.0174-0.8995,0.2426-0.72,0.2996-2.1013,0.3004-4.2052l-0.002-15.553c0.004-2.3372,1.023-2.6382,3.1836-2.6402l2.1614,0.002c1.8649,0,2.3456,0.9621,2.3471,2.6419l-0.003,17.412c1.6818,1.3238,4.0808,3.2454,6.0041,3.2426,0.4771,0.0019,0.7843-0.2988,1.0219-0.9012,0.2421-0.7191,0.2948-2.0999,0.3007-4.2038l-0.002-15.548c0.002-2.3422,1.0267-2.6438,3.1838-2.6416l2.1606-0.0014c1.8638,0,2.346,0.9615,2.3372,2.6422l0.005,18.614c-0.0003,4.6834-1.9202,8.4067-6.9049,8.4044zm38.41-14.047c-0.002,3.841-0.3577,7.6224-2.2226,10.324-1.7411,2.4679-4.7418,3.7268-9.7279,3.7248-5.2821-0.0009-8.5887-1.3822-10.386-3.9623-1.8544-2.6391-2.3998-6.1852-2.4007-11.472-0.0002-5.9391,0.8383-9.8436,3.3628-12.186,1.9828-1.8581,5.2203-2.8185,9.7234-2.8182,2.5849-0.0006,6.1271,0.2381,9.0689,0.7789,1.8623,0.2974,2.1597,1.2583,2.1665,2.6362-0.003,0.6665-0.003,1.3879-0.1279,1.9863-0.1743,0.7767-0.7165,1.8601-1.616,1.8589-0.7248,0.0026-1.4442-0.2996-2.1013-0.4195-2.2263-0.4788-4.6879-0.9601-7.3301-0.9604-1.4409,0.0023-2.7629,0.3016-3.6014,0.6616-1.8596,0.8422-2.0384,3.1828-1.9766,6.1818l14.648,0.002c2.1024,0.0009,2.5234,0.3595,2.5208,3.6646zm-7.3255,1.6203-9.8476-0.0008,0.002,0.5411c-0.005,4.3861,0.9014,5.885,5.2194,5.8842,4.0847,0.0028,4.6242-1.5611,4.6253-5.2849,0,0,0.003-0.7212,0.0009-1.1396zm29.288-0.3007c-1.8661,0.5989-6.9078,1.9193-7.5685,2.7632-0.2376,0.2948-0.2968,0.5961-0.2951,1.1999-0.002,2.2201,0.4788,2.3394,3.4784,2.3414,4.1468-0.0011,6.6075-0.485,7.9279-0.4776,1.1384-0.0031,1.6183,0.4178,1.9749,1.1355,0.2404,0.4836,0.2478,1.6855,0.2483,2.5818-0.003,2.3463-0.8433,2.8236-3.001,2.9427-1.5038,0.1227-2.9452,0.1202-4.4487,0.1219-5.8181,0.0011-9.3654-0.241-11.524-2.4007-1.3839-1.3799-2.1033-3.5402-2.1048-6.7238,0.004-3.5444,1.2017-5.2852,4.2622-6.787,3.9053-1.921,9.2452-2.8805,10.151-3.7811,0.2945-0.2999,0.3566-1.0193,0.3566-1.9831,0.0008-1.9236-0.542-2.2227-3.0016-2.2215-5.2821-0.0006-8.8875,0.6607-9.3651,0.6585-0.7251,0.0011-1.1421-0.1766-1.383-0.7178-0.4754-1.1421-0.3592-1.9839-0.3623-3.1221-0.0003-2.5222,0.4283-2.5843,1.6843-2.7612,1.861-0.2426,4.686-0.4221,8.5904-0.4209,8.5813-0.0012,11.283,1.9221,11.291,9.2472-0.005,5.2823-2.2278,6.8431-6.9103,8.4047"/></g></g></svg>
