<!-- Created with Inkscape (http://www.inkscape.org/) -->
<svg xmlns:rdf="http://www.w3.org/1999/02/22-rdf-syntax-ns#" xmlns="http://www.w3.org/2000/svg" xml:space="preserve" height="120" viewBox="0 0 453.18124 120" width="453.18" version="1.1" xmlns:cc="http://creativecommons.org/ns#" xmlns:dc="http://purl.org/dc/elements/1.1/"><metadata><rdf:RDF><cc:Work rdf:about=""><dc:format>image/svg+xml</dc:format><dc:type rdf:resource="http://purl.org/dc/dcmitype/StillImage"/><dc:title/></cc:Work></rdf:RDF></metadata><defs><clipPath id="clipPath18" clipPathUnits="userSpaceOnUse"><path d="m0 232h742v-232h-742v232z"/></clipPath></defs><g transform="matrix(1.25 0 0 -1.25 -54.089 163.56)"><g transform="matrix(.54845 0 0 .54845 23.152 19.347)"><path d="m257.75 154.57h13.284v-75.607h-13.284v75.607z" fill="#504d4f"/><g clip-path="url(#clipPath18)"><g transform="translate(287.89 116.77)"><path d="m0 0c0 21.493 16.092 39.099 38.99 39.099 13.933 0 22.359-4.859 29.595-11.771l-8.532-9.83c-6.048 5.616-12.529 9.397-21.17 9.397-14.475 0-24.951-11.883-24.951-26.895 0-14.798 10.476-26.895 24.951-26.895 9.287 0 15.229 3.781 21.709 9.829l8.534-8.64c-7.886-8.209-16.526-13.393-30.675-13.393-22.034 0-38.451 17.174-38.451 39.099" fill="#504d4f"/></g><g transform="translate(370.95 154.57)"><path d="m0 0h56.058v-11.881h-42.772v-19.658h37.911v-11.881h-37.911v-20.306h43.311v-11.881h-56.597v75.607z" fill="#504d4f"/></g><g transform="translate(443.33 154.57)"><path d="m0 0h56.274v-12.097h-42.99v-20.631h38.129v-12.097h-38.129v-30.782h-13.284v75.607z" fill="#504d4f"/></g><path d="m514.95 154.57h13.286v-75.607h-13.286v75.607z" fill="#504d4f"/><g transform="translate(581.16 117.09)"><path d="m0 0c9.505 0 15.553 4.971 15.553 12.854 0 8.102-5.834 12.529-15.662 12.529h-19.333v-25.383h19.442zm-32.728 37.48h33.699c17.716 0 28.085-9.504 28.085-24.087 0-12.42-7.454-19.874-18.041-22.898l20.415-28.621h-15.663l-18.791 26.354h-16.418v-26.354h-13.286v75.606z" fill="#504d4f"/></g><g transform="translate(626.53 154.57)"><path d="m0 0h56.06v-11.881h-42.772v-19.658h37.911v-11.881h-37.911v-20.306h43.313v-11.881h-56.601v75.607z" fill="#504d4f"/></g><g transform="translate(202.93 169.11)"><path d="m0 0s-2.14 4.466-11.127 7.374c-8.987 2.909-25.27 7.123-34.747 9-9.478 1.878-12.852 4.118-26.101 2.866-13.242-1.252-29.298-2.807-39.483-4.259-10.191-1.453-11.718-1.736-21.914-2.421-10.198-0.692-15.33 0.753-17.262-5.666-1.93-6.41-0.912-20.994 1.25-34.899 1.888-12.106-1.33-30.272 1.476-48.781 2.085-13.714 3.832-14.771 9.275-19.528 5.442-4.754 16.233-23.24 25.749-27.351 4.717-2.039 17.942-4.285 31.922-0.72 13.979 3.556 29.71 9.193 39.642 10.641 9.928 1.448 27.247 4.044 34.804 9.795 7.561 5.744 5.988 22.823 5.332 31.241-0.657 8.41 1.018 24.532 1.457 33.72 0.37 7.849 0.73 10.617-0.144 16.987-0.891 6.355-0.143 21.992-0.143 21.992" fill="#f04338"/></g><g transform="translate(178.37 178.01)"><path d="m0 0s0.397-1.427 2.737-0.707c2.338 0.722 8.362-1.544 5.579-2.872-2.783-1.335-7.825-4.923-11.574-4.855-3.743 0.07-8.196 1.538-9.265 4.493-1.071 2.949-6.139 7.201-10.651 6.868-4.513-0.329-12.176 1.736-16.142 2.75-3.962 1.012-4.85 0.691-7.275 1.26-2.427 0.563-9.749-2.887-8.24-2.562 1.501 0.329 8.384 0.975 8.994-0.598 0.609-1.572-1.545-5.328-6.752-6.451-5.212-1.125-11.24-2.305-17.685-1.631-6.442 0.678-12.797-0.598-13.931-0.881-1.134-0.28-6.528-3.544-9.054-4.814-2.535-1.264-7.36-1.692-7.962 0.683-0.606 2.371 0.556 4.172 5.295 5.662 4.738 1.487 7.127 1.517 8.105 3.836 0.981 2.325-1.237 2.567 4.364 3.378 5.603 0.801 15.028 2.451 19.052 3.143 4.028 0.683 5.077 0.532 9.566 1.123 4.486 0.589 12.647 1.066 15.541 1.119 2.894 0.054 10.427-2.711 13.162-3.342 2.735-0.636 6.645-0.599 11.604-0.852 4.954-0.25 14.531-4.75 14.531-4.75" fill="#ed1c24"/></g><g transform="translate(96.621 149.96)"><path d="m0 0s-1.739-4.209-2.504-9.906c-0.765-5.7 0.34-13.582 0.284-16.18-0.064-2.6-0.53-10.974-0.458-15.31 0.08-4.34 1.755-4.901 1.899-11.369 0.14-6.468-3.616-28.444-2.852-31.768 0.763-3.328 4.754-11.602 5.356-14.823 0.597-3.221 2.632-5.611-1.666-5.178-4.295 0.439-4.567 0.306-6.15 4.705-1.581 4.396-0.869 5.94-1.488 10.693-0.621 4.754-2.209 17.711-1.62 22.886 0.589 5.174 5.485 14.627 4.929 18.531-0.552 3.904-2.273 9.023-1.9 12.96 0.375 3.941 0.556 13.676-1.322 15.802-1.88 2.121-3.219 10.61-3.572 11.284-0.351 0.675-0.99 11.112-0.99 11.112l5.601-2.305" fill="#ed1c24"/></g><g transform="translate(200.12 91.856)"><path d="m0 0s2.244-15.616-1.383-20.274c-3.624-4.662-8.852-7.816-15.622-9.807-6.778-1.987-17.79-2.349-25.769-4.528-7.983-2.179-15.786-3.853-25.253-7.413-9.47-3.568-21.336-6.194-21.188-5.149 0.155 1.034 7.928 5.426 14.97 6.228 7.035 0.801 15.689 2.312 20.387 6.312 4.696 3.996 6.547 7.601 10.975 6.142 4.429-1.451 7.327-1.913 9.521-0.853 2.201 1.06 3.963 1.603 5.81 1.123 1.841-0.476 7.42 1.865 10.463 2.752 3.05 0.886 3.62 6.098 4.017 8.524 0.39 2.427 2.248 3.402 5.136 3.236 2.901-0.166 6.344 5.4 5.663 7.48-1.766 5.396 2.273 6.227 2.273 6.227" fill="#ed1c24"/></g><g transform="translate(82.539 127.55)"><path d="m0 0s-0.484-4.32-2.656-11.406c-2.174-7.088-4.443-8.861-3.082-13.459 1.354-4.602 5.367-9.858 6.453-16.496 1.097-6.633 5.756-26.236 1.551-21.862-4.207 4.377-15.244 15.04-15.297 22.941-0.052 7.908-3.476 11.398 3.28 22.479 6.759 11.081 6.63 18.533 6.611 19.528-0.018 0.997-0.881 3.226-0.881 3.226s0.287-1.093 2.152-3.023l1.869-1.928z" fill="#f46d57"/></g><g transform="translate(178.86 104.45)"><path d="m0 0s-12.538 5.064-18.944 5.515c-6.407 0.446-16.393 1.754-17.122-0.296-0.731-2.057-1.442-6.113-4.926-10.401-3.483-4.288-2.57-4.211-10.661-6.047-8.091-1.835-10.289-0.351-15.266-0.435-4.977-0.086-10.382-1.079-10.382-1.079s-3.441 1.529-2.992-1.614c0.454-3.143 0.238-11.653 0.209-14.036-0.034-2.382 0.155-8.89 0.155-8.89l0.105-7.897s18.446 8.432 22.267 9.094c3.815 0.661 22.285 10.427 25.057 12.266 2.776 1.836 4.955 17.116 8.896 17.596 3.934 0.484 6.335-1.167 10.141-5.485 3.808-4.317 10.744-12.876 12.813-11.306 2.061 1.57 5.542 9.374 5.542 9.374l8.963 5.013 5.473 7.239-0.155 8.876-7.174 8.521-4.566-2.475-0.757-10.05-2.019-3.402s-1.233-2.164-2.417-1.769c-1.176 0.406-2.24 1.688-2.24 1.688" fill="#f46d57"/></g><g transform="translate(200.39 167.25)"><path d="m0 0s-0.672-14.46-0.744-17.652c-0.076-3.193 3.335-7.073 2.007-14.959-1.328-7.889-2.628-12.763-2.794-18.381s3.775-11.295 0.264-15.435c-3.505-4.152-5.934-3.934-5.886-6.871 0.05-2.932-1.27-7.553-1.95-5.267-0.681 2.283-1.267 6.786 1.863 10.206 3.133 3.409 7.271 9.936 1.548 14.841-5.719 4.912-6.547 3.538-6.971 0.952-0.42-2.581-1.41-14.6-4.167-12.602-2.753 1.991 1.456 2.198 0.691 9.326-0.759 7.137-0.227 11.109-5.722 12.538-5.496 1.437-8.7 2.277-8.271-0.397 0.43-2.674-2.126-9.352-1.989-2.715 0.135 6.642-0.418 8.93 1.754 16.112 2.178 7.19 1.925 13.816 0.96 18.016-0.96 4.197-1.854 3.414-0.086 5.104 1.762 1.691 8.055 0.919 13.692 2.543 5.642 1.622 15.801 4.641 15.801 4.641" fill="#fbcbbb"/></g><g transform="translate(185.42 95.601)"><path d="m0 0s-1.551 0.912-4.543-3.143c-2.715-3.671-3.223-5.67-3.956-7.476-0.733-1.795-3.249-3.878 0.098-5.611 3.348-1.732 5.673-3.221 8.676 0.155 3.003 3.366-1.339 3.635-0.12 7.059 1.213 3.42 0.382 4.174 1.014 5.976 0.639 1.795-1.169 3.04-1.169 3.04" fill="#fbcbbb"/></g><g transform="translate(163.58 98.371)"><path d="m0 0c1.721-0.99 4.598-0.258 5.518-3.989 0.914-3.727 1.834-7.797 2.364-8.809 0.529-1.008 2.436-2.985 0.048-2.87-2.382 0.111-11.943 1.655-11.875 7.694 0.063 6.031 3.945 7.974 3.945 7.974" fill="#fbcbbb"/></g><g transform="translate(181.28 72.638)"><path d="m0 0c-2.753-1.747-7.906-0.137-8.375-2.017-0.469-1.883-1.343-5.64 2.682-4.55 4.024 1.09 7.893 3.712 8.351 6.612 0.465 2.903-0.715 2.201-1.384 1.51-0.67-0.698-1.274-1.555-1.274-1.555" fill="#fff"/></g><g transform="translate(127.71 64.221)"><path d="m0 0c-3.177-0.392-10.798-2.571-13.661-4.488-2.862-1.924-9.304-11.69-13.252-8.104-2.913 2.652 0.166-8.525 8.38-5.259 10.571 4.199 15.526 6.741 24.112 7.564 8.59 0.828 18.813 9.855 15.212 11.495-3.605 1.643-7.106-2.331-9.456-4.584-2.337-2.257-10.772-6.652-8.805-2.368 1.967 4.289 5.145 6.722 2.857 6.682-2.292-0.033-5.387-0.938-5.387-0.938" fill="#fbcbbb"/></g><g transform="translate(166.47 69.148)"><path d="m0 0c-3.212-0.905-3.998-4.661-2.294-4.805 1.703-0.137 5.965-0.433 5.925 1.879-0.042 2.309-3.631 2.926-3.631 2.926" fill="#fff"/></g><g transform="translate(158.48 69.008)"><path d="m0 0c-1.862-0.539-1.649-2.94 0.052-2.985 1.706-0.044 3.067-0.288 3.038 1.544-0.032 1.836-3.09 1.441-3.09 1.441" fill="#fff"/></g><g transform="translate(189.93 110.24)"><path d="m0 0s1.675 1.385 2.587-2.002c0.907-3.387 1.524-9.334 2.144-5.751 0.621 3.586 2.935 7.203-0.166 9.53-3.104 2.33-4.493 3.863-4.626 1.636-0.131-2.231 0.061-3.413 0.061-3.413" fill="#f89a83"/></g><g transform="translate(69.091 90.774)"><path d="m0 0c0.885-2.028 0.938-5.086 2.349-7.786 1.408-2.7 4.754-9.109 2.144-6.091-2.602 3.018-4.663 4.1-5.409 7.701-0.744 3.598 0.916 6.176 0.916 6.176" fill="#fff"/></g><g transform="translate(197.03 160.56)"><path d="m0 0c1.101-2.534 1.311-6.615 1.119-9.343-0.193-2.722-1.021-8.013-0.776-10.393 0.25-2.379-3.215 0.948-4.134 4.94-0.922 3.994-1.906 7.21-1.243 10.454 0.664 3.245 1.569 3.26 2.718 4.3 1.144 1.041 2.316 0.042 2.316 0.042" fill="#ed1c24"/></g><g transform="translate(194.37 158.47)"><path d="m0 0c-0.458-3.241-0.582-5.627 0.133-7.655 0.715-2.035 2.098-3.371 2.185 1.566 0.084 4.938 1.268 5.299-0.117 6.807-1.392 1.509-2.201-0.718-2.201-0.718" fill="#fff"/></g><g transform="translate(181.29 166.07)"><path d="m0 0c1.383-1.335 0.798-2.367 1.221-4.576 0.432-2.205-1.009-7.5-0.95-11.245 0.069-3.744-1.293-14.202-4.497-10.571-3.206 3.627-3.88 12.977-3.804 18.253 0.079 5.28 0.216 7.323 2.072 8.038 1.862 0.711 5.958 0.101 5.958 0.101" fill="#ed1c24"/></g><g transform="translate(178.6 164.67)"><path d="m0 0s2.735-0.635 2.78-3.014c0.038-2.384-0.957-6.828-1.48-9.559-0.52-2.733-1.112-8.699-2.942-5.84-1.83 2.863-3.158 10.671-2.205 14.599 0.953 3.934 3.847 3.814 3.847 3.814" fill="#fff"/></g><g transform="translate(189.02 144.59)"><path d="m0 0c0.964-1.856 1.69-7.291 5.088-10.466 3.396-3.176 5.498-8.244 4.432-9.795-1.063-1.552-3.956-3.472-6.596 2.609-2.649 6.082-0.593 6.631-2.791 10.164-2.198 3.536-4.434 3.839-3.548 7.429 0.881 3.588 3.415 0.059 3.415 0.059" fill="#ed1c24"/></g><g transform="translate(193.77 132.78)"><path d="m0 0c1.267-1.758 6.119-7.546 3.014-6.691-3.259 0.885-3.915 1.437-4.554 3.829-0.722 2.711 0.537 2.508 0.602 3.706 0.061 1.195 0.938-0.844 0.938-0.844" fill="#fff"/></g><g transform="translate(178.39 176.75)"><path d="m0 0c-1.862-0.541-6.109-0.958-8.495-0.829-2.387 0.129-6.865 3.283-3.801 3.339 3.064 0.054 4.163 0.58 6.766 0.114 2.597-0.461 5.53-2.624 5.53-2.624" fill="#fff"/></g><g transform="translate(160.63 181.84)"><path d="m0 0c-2.735-1.195-8.355-0.272-11.602 0.181-3.237 0.454-10.066 1.612-12.628 2.209-2.56 0.591-3.105 2.371-3.873 2.482-0.768 0.116 0.249 0.26-3.169-1.199-3.424-1.464-20.217-4.694-23.404-4.748-3.193-0.055-14.274-2.057-14.915-2.166-0.632-0.111-0.037-1.332 7.701 0.227 17.103 3.448 20.326 1.603 25.549 2.545 5.213 0.942 4.803 4.77 8.144 3.427 1.694-0.681 1.947-1.752 9.622-2.901 7.681-1.139 15.378-5.174 18.185-3.121 3.639 2.674 7.443 0.946 5.507 2.346-1.941 1.4-5.117 0.718-5.117 0.718" fill="#f89a83"/></g><g transform="translate(130.72 182.66)"><path d="m0 0c-2.44-0.345-4.319-1.536-5.007-3.337-0.692-1.797-2.164 0.523-4.031-0.609-3.775-2.289-7.214-3.025-8.065-3.09-1.021-0.08 3.912-0.144 7.993 0.183 4.076 0.324 5.173-0.1 7.107 0.57 1.931 0.672 3.955 1.535 4.424 3.843 0.477 2.307-2.421 2.44-2.421 2.44" fill="#f89a83"/></g><g transform="translate(119.11 174.08)"><path d="m0 0c-4.21 0.057-12.176 1.472-15.478 0.646-3.304-0.82-8.037-0.419-7.28 0.248 0.757 0.665 7.118 1.588 7.118 1.588s-7.991-0.567-9.478-1.771c-5.413-4.395 1.638-2.368 5.59-2.047 3.949 0.322 10.329 0.473 12.751 0.772 2.421 0.3 6.777 0.564 6.777 0.564" fill="#fff"/></g><g transform="translate(183.25 176.1)"><path d="m0 0s-1.158-1.625-5.598-2.05c-4.443-0.419-6.857-0.918-8.279-0.138-1.415 0.777-3.03-1.801 1.055-1.733 4.085 0.072 5.598 0.351 9.097 1.308 3.498 0.953 6.27 2.148 5.76 2.648-0.512 0.506-2.035-0.035-2.035-0.035" fill="#fff"/></g><g transform="translate(155.02 177.6)"><path d="m0 0c-1.535 0.412-9.361 2.576-12.939 2.764-3.581 0.198-7.531-0.014-7.889-1.418-0.357-1.403 0.953-3.422-7.572-4.973-8.525-1.555-16.291-2.707-19.861-2.898-3.575-0.188-5.745 0.028-8.805-0.155-3.06-0.177-7.114-2.039-8.619-3.339-1.511-1.306-8.217-4.864-7.293-6.637 0.927-1.771 5.991-7.077 9.398-8.405 3.409-1.328 13.617-1.097 19.488-1.086 5.872 0.011 34.254 4.584 35.019 4.728 0.768 0.14 0.007-0.408 4.932 2.753 4.92 3.162 12.285 5.461 12.285 5.461s-9.703 0.083-14.052 0.776c-4.353 0.689-5.507 1.086-5.507 1.086s5.614-0.126 10.458 0.185c4.846 0.303 10.459 0.783 11.849 1.32 1.393 0.534 2.259 2.205 0.584 3.201-1.675 0.993-3.767 3.758-3.529 4.783 0.238 1.03-7.947 1.854-7.947 1.854" fill="#fff"/></g><g transform="translate(200.62 168.49)"><path d="m0 0c-2.846 2.251-5.251 4.251-9.221 3.287-3.965-0.96-3.579-1.339-8.023-2.692-4.445-1.356-10.194-0.75-10.299-2.316-0.098-1.567-3.609-5.371-3.476-5.753 0.137-0.379 16.823 1.612 20.128 2.307 3.31 0.696 8.673 0.537 10.441 1.713 1.765 1.181 0.45 3.454 0.45 3.454" fill="#fff"/></g><g transform="translate(52.206 173.96)"><path d="m0 0c1.769 0.835 3.671 9.406 8.276 4.609 2.415-2.519 3.512 0.015 8.478 0.636 4.966 0.62 10.787 1.847 12.656 1.699 1.043-0.08 3.664 0.412 5.794 0.87 2.395 0.866 7.062 2.079 9.226 2.353 2.43 0.306 10.651 0.487 13.589 0.541 2.931 0.051 5.919 2.242 7.372 1.856 1.448-0.383 6.505 0.17 6.689 0.118 0 0 2.248-0.942-1.043-2.054-3.487-1.18-5.601-0.814-10.076-0.609-4.469 0.199-6.222-1.668-8.385-2.244-2.155-0.571-11.778-0.066-15.496-0.585-0.787-0.109-1.505-0.276-1.971-0.582-0.823-0.682-0.971-1.121 0.974-1.771 2.696-0.903-9.052-3.227-11.582-4.542-2.531-1.32-2.893-5.665-3.756-5.806-0.863-0.144-4.645 0.685-6.403 0.779-1.756 0.102-3.893-1.724-5.681-1.63-1.789 0.097-10.436 5.525-8.661 6.362" fill="#fff"/></g><g transform="translate(163.14 158.27)"><path d="m0 0s2.678-7.288 0.218-12.534c-2.462-5.245-6.248-6.717-5.184-9.633 1.062-2.916 5.275-1.441 3.993-5.421-1.285-3.977-3.238-4.775-5.93-9.802-2.704-5.024-2.133-15.606-7.031-20.289-4.898-4.684-8.538-8.193-10.375-12.688-1.834-4.502 0.67-9.219-7.345-10.807-8.015-1.585-13.522-4.794-5.352 4.816 8.17 9.615 10.61 16.163 7.587 20.961-3.018 4.798-4.569 5.943-10.409 3.978s-15.103-8.255-17.175-8.414c-2.076-0.166-6.584 2.084-7.708 7.986-1.127 5.906-3.847 6.641-1.249 14.638 2.122 6.517 1.042 12.198 0.569 16.468-1.01 9.123 2.703 2.64 4.155 6.857 0.984 2.833 7.581 4.984 19.921 7.258 12.346 2.273 25.054 2.005 29.106 3.991 4.05 1.981 3.429 3.096 8.128 3.446 4.692 0.351 4.081-0.811 4.081-0.811" fill="#fbcbbb"/></g><g transform="translate(70.738 165)"><path d="m0 0c3.448-0.231 1.402 0.245 4.901-2.883 3.498-3.132 2.48-3.15 5.321-5.143 2.844-1.993 3.828-4.017 6.491-4.612 2.667-0.589 3.404-0.293 0.019-1.008-1.555-0.331-1.74-2.085-1.119-3.476 0.855-1.911 2.801 0.543 3.132-3.911 0.336-4.453 1.433-9.539-0.417-9.316-1.853 0.222-0.3-0.873 0.995-1.948 1.293-1.078 2.53-6.759-0.87-5.309-3.4 1.455-7.496 2.148-9.097 5.952-1.596 3.8-3.324 11.986-6.797 15.031-3.475 3.043-9.315 1.411-10.582 0.624-1.259-0.79-6.048-4.445-6.135 0.661-0.086 5.103 0.719 10.224-0.223 12.887s-2.216 2.639-1.932 0.859c0.287-1.782 0.253-10.848 0.166-11.231-0.09-0.385-0.805-3.203-0.805-3.203l-1.547 22.905s0.123 0.17 3.605-1.682c3.475-1.854 3.143-4.54 7.608-4.721 4.471-0.173 7.286-0.476 7.286-0.476" fill="#f89a83"/></g><g transform="translate(91.779 125.82)"><path d="m0 0s-5.035 0.063-6.759 1.249c-1.951 1.342-0.019-4.237-1.483-8.22-1.463-3.982-5.786-12.3-4.187-16.123 1.597-3.834 2.864-6.748 5.947-9.759 3.082-3.01 6.123 5.722 5.045 8.765-1.071 3.048-4.039 5.068-4.225 8.241-0.182 3.173-0.34 8.148 1.933 8.063 2.266-0.093 2.675-5.027 2.65-3.675-0.022 1.348 0.8 9.095 0.8 9.095l0.279 2.364z" fill="#ed1c24"/></g><g transform="translate(126.97 106.92)"><path d="m0 0c1.98-1.06 5.814-2.09 5.488-4.994-0.324-2.907 0.095-4.816-4.609-6.05-4.705-1.226-8.654-1.617-13.378-1.411-4.728 0.207-7.278-0.158-9.698-0.166-2.425-0.011-4.445-1.318-4.482 0.975-0.046 2.301-3.692 6.42-0.855 4.887s1.476-3.982 7.825-2.213c6.351 1.769 6.979 2.42 11.786 4.928 4.804 2.511 7.204 4.029 7.204 4.029l0.719 0.015z" fill="#ed1c24"/></g><g transform="translate(105.41 93.987)"><path d="m0 0c-2.541-0.58-7.745-2.102-3.854-2.279 3.897-0.177 3.634 0.192 5.405 0.993 1.777 0.806-1.551 1.286-1.551 1.286" fill="#fff"/></g><g transform="translate(75.104 145.77)"><path d="m0 0s1.668-7.886 2.227-10.809c0.564-2.929 0.473-5.099-0.866-8.824-1.339-3.727-1.335-7.044-1.649-9.349-0.318-2.301-4.08-10.024-6.289-5.854-2.205 4.181 1.967 4.377-2.262 9.858-4.225 5.476-11.747 12.322-9.036 17.879 2.713 5.559 2.353 9.383 8.56 9.745 6.199 0.361 9.315-2.646 9.315-2.646" fill="#ed1c24"/></g><g transform="translate(74.544 124.25)"><path d="m0 0c-1.559 3.136-7.359 4.766-11.21 5.684-3.854 0.916-5.95 6.468-5.016 7.849 0.938 1.382 1.707 2.296 3.042 1.241 1.335-1.06 5.245-4.641 5.245-4.641s-7.557 8.937-4.237 9.186c3.313 0.251 4.482 4.876 9.162-3.376 3.603-6.355 5.101-7.989 4.565-9.823-0.537-1.837-1.551-6.12-1.551-6.12" fill="#f46d57"/></g><g transform="translate(120.69 103.44)"><path d="m0 0s3.793 2.135 6.381 0.111c2.591-2.028-0.556-5.4-1.212-7.96-0.65-2.567 0.97-1.008 0.107-6.131-0.858-5.12-9.184-9.918-8.888-13.175 0.397-4.296-3.869-5.105 1.671-4.274 5.474 0.82 6.441 0.115 10.159 0.909 9.373 2.005 17.652 11.025 20.319 19.243 2.663 8.215 3.54 16.396 7.117 16.466 3.572 0.056 5.995-7.306 0.246-14.297-5.753-6.993-8.551-13.574-9.179-20.164-1.23-12.776-18.983-5.286-31.412-9.241-8.854-2.819-8.601-10.047-13.758-12.448-1.159-0.539-8.246 4.2-6.503 6.963 2.613 4.155 7.051 1.791 11.09 4.159 4.046 2.367 7.088 3.697 7.088 3.697s-14.285-0.502-7.489 4.979c6.796 5.474 12.05 11.69 12.05 11.69s-0.075 4.595 0.636 7.417c0.718 2.822 3.267 3.125 1.956 5.141-1.314 2.021-4.121 1.969-3.648 4.019 0.48 2.05 3.269 2.896 3.269 2.896" fill="#fff"/></g><g transform="translate(200.74 170.02)"><path d="m0 0s1.797-2.469-2.742-4.338c-4.538-1.869-12.452-0.892-21.32-2.924-8.881-2.031-22.012-1.8-26.37-4.186-4.357-2.388-23.163-4.298-29.043-4.479-5.882-0.181-20.614-2.768-23.794-2.478-3.186 0.295-6.802 0.352-13.711 6.159-6.911 5.808-6.257 7.522-12.065 8.951-5.814 1.43-10.429 0.159-13.341 3.515-2.913 3.35 1.93 10.423-2.44 8.737-3.771-1.453-4.447-4.434-3.671-7.099 1.172-4.041 6.463-6.647 12.299-7.528 5.844-0.884 15.87-9.849 20.843-11.913 4.97-2.065 5.229-5.276 7.894-5.232 2.663 0.046 0.349-3.003 5.957-1.557 5.609 1.444 23.567 6.013 34.476 6.205 10.908 0.187 20.529 4.831 24.092 5.81 3.568 0.985 6.297 0.451 9.195 0.674 2.898 0.224 12.758 1.542 20.507 3.589 7.751 2.05 10.927-2.621 12.988 1.414 2.057 4.039 0.242 6.68 0.242 6.68" fill="#ed1c24"/></g><g transform="translate(156.28 118.45)"><path d="m0 0c-0.188 2.168 2.179 0.801 4.421-0.912 2.244-1.714 1.093 0.753 1.638 3.442 0.538 2.691-0.118 2.168-1.732 2.143-1.21-0.019 0.181 2.14 1.588 3.944 0 0 2.898 6.983 1.343 8.488-1.559 1.502-3.454 0.272-0.855 4.938 2.602 4.662 4.203 11.329 3.363 13.995-0.841 2.667-4.385 5.413-4.385 5.413l9.234 0.163s-1.752-1.895-1.143-7.59c0.613-5.698 0.076-6.969-0.908-13.716-0.477-3.267-0.767-5.469-0.94-6.884 0.074-0.238 0.138-0.509 0.166-0.84 0.051-0.532-0.104-0.884-0.405-1.263l-0.005-0.004c-0.56-0.69-1.614-1.466-2.824-3.638-1.869-3.35 0.438-2.288 2.216-1.876 1.78 0.417-1.887-1.437-0.412-5.618 1.474-4.189 5.098 0.469 5.934 3.727 0.835 3.265 2.303-0.396 4.833-2.013 2.538-1.615 3.194-4.536 3.166-6.867-0.026-2.327 2.074-7.21-2.92-7.04-4.992 0.167-16.668 7.11-20.745 6.63-4.082-0.484-0.443 3.214-0.628 5.378" fill="#ed1c24"/></g><g transform="translate(135.97 105.71)"><path d="m0 0s0.735 5.754-5.764 10.18c-6.486 4.421-14.27-3.055-17.912 0.808-3.642 3.864-8.922 13.905-10.375 9.325-1.448-4.586-2.242-8.996-2.107-13.942 0.14-4.945-3.021-12.096 7.501-8.876 10.522 3.218 14.13 5.323 20.481 4.92 6.353-0.398 8.176-2.415 8.176-2.415" fill="#f89a83"/></g><g transform="translate(122.32 102.74)"><path d="m0 0s-4.22-1.747-1.823-2.645c2.399-0.893 6.702-0.413 5.878 1.408-0.829 1.828-4.055 1.237-4.055 1.237" fill="#ed1c24"/></g><g transform="translate(123.81 60.918)"><path d="m0 0s-7.535-2.172-11.068-4.613c-3.529-2.445-6.746-3.465 1.385-1.311 8.135 2.157 12.436 4.099 13.04 5.983 0.61 1.888-3.357-0.059-3.357-0.059" fill="#f04338"/></g><g transform="translate(145.12 63.884)"><path d="m0 0c-2.863-1.621-7.591-3.971-4.872-3.897 2.728 0.074 4.251 0.406 5.925 2.153 1.667 1.748-1.053 1.744-1.053 1.744" fill="#f04338"/></g><g transform="translate(198.67 75.113)"><path d="m0 0c-0.835 1.389-4.1 3.029-6.255-0.155-2.161-3.184-10.246-12.211-5.648-10.327 4.604 1.883 8.47 4.155 9.975 6.061 1.501 1.902 1.928 4.421 1.928 4.421" fill="#f89a83"/></g><g transform="translate(195.37 75.013)"><path d="m0 0c1.141-0.916 0.615-2.46 0.048-2.977-0.563-0.528-2.356 0.21-1.83 1.455 0.534 1.241 1.782 1.522 1.782 1.522" fill="#ed1c24"/></g><g transform="translate(193.13 71.833)"><path d="m0 0c1.053-1.012 1.197-1.182 0.039-2.223-1.162-1.038-5.546-3.284-4.043-1.581 1.502 1.71 4.004 3.804 4.004 3.804" fill="#ed1c24"/></g><g transform="translate(162.81 93.839)"><path d="m0 0c1.206-0.391 2.511-4.089 5.586-6.172 3.072-2.094 1.396-3.56-1.194-1.355-2.592 2.205-3.794 2.023-4.335 4.136s-0.057 3.391-0.057 3.391" fill="#f04338"/></g><g transform="translate(181.04 86.552)"><path d="m0 0c0.129-0.978 1.766-2.803 2.848-3.645 1.086-0.843 1.058-2.372-2.747-2.272-3.804 0.107-4.598 0.942-2.98 3.694 1.616 2.751 2.879 2.223 2.879 2.223" fill="#f04338"/></g><g transform="translate(182.04 123.88)"><path d="m0 0s-2.851 5.001-1.444 8.715c1.398 3.71-2.67 4.497-5.535 2.78-2.862-1.713 1.226 1.952-0.293 3.496-1.526 1.538-2.747 0.192-4.691-4.782-1.945-4.966 0.133-7.69 0.133-7.69s0.982 0.357 4.768 0.251c3.779-0.099 7.062-2.77 7.062-2.77" fill="#f89a83"/></g><g transform="translate(187.21 144.39)"><path d="m0 0c1.079-0.75 3.023-2.5 1.491-2.399-1.535 0.102-1.895-1.158-2.318 1.169-0.425 2.325 0.827 1.23 0.827 1.23" fill="#fff"/></g><g transform="translate(163.33 172.06)"><path d="m0 0s5.816-1.873 2.597-2.645c-3.217-0.771-3.384-1.074-9.681-1.119-6.294-0.046-7.203-0.912-11.332-1.154-4.131-0.242-9.956-1.032-9.956-1.032s5.431 3.937 14.771 5.16c9.337 1.224 13.601 0.79 13.601 0.79" fill="#fbcbbb"/></g><g transform="translate(132.98 165.54)"><path d="m0 0s-13.271-5.666-17.194-7.167c-3.926-1.502-8.972-5.084-15.956-4.645-6.99 0.43-16.439 2.368-11.162 4.133 5.272 1.764 15.038 3.295 25.7 4.161 10.658 0.866 18.612 3.518 18.612 3.518" fill="#fbcbbb"/></g><g transform="translate(87.47 151.35)"><path d="m0 0s-3.843 1.786-7.18 4.067c-3.336 2.28-6.641 6.088-10.586 7.712-3.941 1.621-11.653 2.844-13.144 3.85-1.494 1.005-3.516 3.169-3.516 3.169s2.488-4.297 7.507-6.637c5.023-2.338 7.69-4.717 12.618-7.564 4.925-2.854 6.561-1.657 9.387-2.584 2.825-0.927 4.914-2.013 4.914-2.013" fill="#fff"/></g><g transform="translate(187.56 84.096)"><path d="m0 0c0.813 0.38 2.746 2.36 2.663 3.28-0.113 1.219 0.689 0.118 0.791-0.971 0.14-1.511-1.075-3.376-2.451-3.971-1.007-0.428-2.126 1.138-1.003 1.662" fill="#fbcbbb"/></g><g transform="translate(179.6 76.28)"><path d="m0 0c0.22 0.148 0.421 0.277 0.685 0.329 0.192 0.033 0.393 0.03 0.593 0.033 0.504 0.018 0.984-0.51 1.003-0.99 0.014-0.55-0.442-0.805-0.924-0.82 0 0-0.022-0.004-0.059-0.007-0.031 0-0.295-0.067-0.136-0.019-0.405-0.136-0.82-0.051-1.127 0.255-0.296 0.3-0.451 0.935-0.035 1.219" fill="#fbcbbb"/></g><g transform="translate(149.6 67.068)"><path d="m0 0c0.564 0.613 1.483 0.835 2.235 1.211 0.848 0.421 2.002 0.141 2.901 0.351 1.068 0.255 1.361-0.894 0.148-1.189-0.776-0.192-3.396-2.519-3.904-2.874-0.857-0.594-2.155 1.659-1.38 2.501" fill="#fbcbbb"/></g><g transform="translate(135.86 65.085)"><path d="m0 0c0.405 0.347 1.018 0.214 1.372-0.137 0.039-0.04 0.08-0.077 0.115-0.125 0.253-0.314 0.423-0.71 0.181-1.094-0.264-0.428-0.916-0.487-1.309-0.206-0.117 0.088-0.222 0.18-0.333 0.28-0.355 0.333-0.419 0.95-0.026 1.282" fill="#fbcbbb"/></g><g transform="translate(147.43 69.753)"><path d="m0 0c0.488 0.41 1.226 0.251 1.646-0.17 0.05-0.048 0.098-0.088 0.14-0.14 0.303-0.381 0.506-0.85 0.22-1.311-0.318-0.503-1.101-0.584-1.57-0.24-0.144 0.103-0.273 0.218-0.401 0.332-0.428 0.395-0.5 1.134-0.035 1.529" fill="#fbcbbb"/></g><g transform="translate(179.93 102.41)"><path d="m0 0c0.402 0.022 0.796-0.019 1.124-0.277 0.394-0.296 0.697-0.794 0.398-1.274-0.288-0.455-0.806-0.444-1.223-0.237-0.423 0.026-0.824 0.351-0.945 0.75-0.141 0.451 0.14 1.001 0.646 1.038" fill="#fbcbbb"/></g><g transform="translate(176.68 142.87)"><path d="m0 0c0.091 0.227 0.185 0.427 0.318 0.628 0.055 0.086 0.109 0.177 0.162 0.268l0.004 0.007c0.065 0.512 0.729 0.646 1.123 0.515 0.508-0.175 0.764-0.62 0.711-1.135-0.041-0.376-0.401-0.791-0.593-1.101-0.22-0.344-0.667-0.42-1.021-0.299-0.401 0.136-0.883 0.648-0.704 1.117" fill="#fbcbbb"/></g><g transform="translate(131.57 186.48)"><path d="m0 0c0.995 0.534 2.312 0.318 3.396 0.262 2.226-0.111 4.407-0.371 6.623-0.652 0.942-0.116 5.579-1.198 6.116-2.196 1.509-2.836-6.622 1.592-8.238 1.856-6.368 1.051-5.707-0.469-6.924-0.851-0.953-0.297-2.046 1.003-0.973 1.581" fill="#f89a83"/></g><g transform="translate(87.441 130.81)"><path d="m0 0c-0.159 0.408-0.094 0.877 0.364 1.077 0.441 0.197 1.097-0.011 1.316-0.46 0.204-0.417 0.359-0.862 0.226-1.328-0.155-0.534-0.615-0.822-1.138-0.905-0.408-0.061-0.836 0.163-1.051 0.504-0.238 0.398-0.147 0.907 0.283 1.112" fill="#fbcbbb"/></g><g transform="translate(69.499 113.46)"><path d="m0 0c1.051 0.65 2.094 1.134 2.848 2.172 0.596 0.835 1.873 1.843 1.32 0.956-0.768-1.211-1.819-4.942-3.185-5.411-0.99-0.34-2.011 1.648-0.983 2.283" fill="#f89a83"/></g><g transform="translate(65.626 141.36)"><path d="m0 0c0.429-0.288 1.256-1.068 1.328-1.211 0.515-1.094-0.495-1.532 0-2.636 2.065-4.612 4.576-6.506 6.456-6.124 0.859 0.173 1.773 0.515 1.642-0.447-0.09-0.676-0.598-1.498-1.093-1.954-0.227-0.216-1.358-1.193-3.515-0.096-0.112 0.057-0.151 0.172-0.184 0.266-5.201 5.287-11.787 2.032-11.044 7.391 0.12 0.881 2.742 1.433 2.746 0.321 0.007-3.272 3.498-4.138 6.565-5.099-1.028 1.297-1.739 2.902-2.356 4.75-0.379 1.12-0.526 2.335-1.581 3.086-0.43 0.307-0.964 0.685-1.062 1.249-0.224 1.278 0.514 1.967 1.744 2.024 0.989 0.044 0.917-0.981 0.354-1.52" fill="#f89a83"/></g><g transform="translate(58.898 102.66)"><path d="m0 0c2.404-1.104 2.851-4.462 5.197-5.747 6.41-3.531 0.552-3.941-2.453-7.886-0.593-0.779-1.719-2.504-1.588-1.725 0.288 1.718 0.765 6.135 0.711 7.901-0.055 1.739-2.159 5.625-2.288 5.791-1.054 1.352-0.748 2.202 0.421 1.666" fill="#fbcbbb"/></g><g transform="translate(109.35 92.982)"><path d="m0 0c-0.019 0.525 0.432 0.787 0.901 0.78 0.434-0.008 0.783-0.27 1.09-0.555 0.351-0.324 0.411-0.941 0.029-1.27-0.404-0.34-1.017-0.2-1.361 0.144-0.022 0.018-0.042 0.041-0.064 0.059-0.322 0.151-0.582 0.491-0.595 0.842" fill="#fbcbbb"/></g><g transform="translate(154.49 102.67)"><path d="m0 0c0.327 1.407 1.287 4.842 3.348 3.734 0.704-0.38 0.813-1.215 0.685-2.149 0.532-1.976 0.034-4.602-1.823-5.526-0.951-0.472-1.804 0.296-2.164 1.104-0.358 0.813-0.242 2.002-0.046 2.837" fill="#fbcbbb"/></g><g transform="translate(121 91.076)"><path d="m0 0c0.22 0.721 0.798 1.138 1.45 1.179 0.552 0.214 1.425-0.163 1.444-0.891v-0.029c0.007-0.071 0.011-0.141 0.004-0.207 0.011-0.451 0.018-0.898-0.061-1.345-0.056-0.325-0.211-0.646-0.458-0.864-0.435-0.373-1.012-0.262-1.478-0.04-0.822 0.395-1.158 1.359-0.901 2.197" fill="#fbcbbb"/></g><g transform="translate(107.59 70.636)"><path d="m0 0c0.057 0.432 0.473 0.735 0.826 0.931 0.437 0.24 0.964 0.281 1.455 0.292 0.504 0.018 0.981-0.51 1.003-0.99 0.011-0.355-0.178-0.584-0.44-0.702 0.05-0.074 0.093-0.144 0.119-0.236 0.151-0.469-0.144-0.898-0.614-0.979-1.082-0.207-2.515 0.395-2.349 1.684" fill="#f89a83"/></g><g transform="translate(97.315 59.607)"><path d="m0 0c0.436 0.728 1.491 0.746 2.22 0.621 0.822-0.152 1.732-0.484 2.194-1.219 0.242-0.381 0.166-1.038-0.321-1.201-1.151-0.373-2.83-0.561-3.823 0.248-0.231 0.184-0.318 0.395-0.307 0.605-0.148 0.266-0.17 0.595 0.037 0.946" fill="#f89a83"/></g><g transform="translate(59.713 175.31)"><path d="m0 0c1.418 0.578 5.76 2.094 7.243 2.508 2.259 0.628 4.626 0.449 6.906 1.187 3.087 1.005 6.286 0.828 9.498 0.885 1.183 0.018 2.071-0.754 0.761-0.776-3.349-0.057-7.02-1.241-10.263-2.111-1.513-0.404-1.445 0.338-2.999 0.183-2.026-0.205-5.299-1.948-7.212-2.561-0.981-0.31-5.073 0.219-3.934 0.685" fill="#f89a83"/></g><g transform="translate(92.83 182.93)"><path d="m0 0c1.573 0.87 4.905 0.794 6.846 1.054 0.938 0.126 4.248-0.158 3.162-0.321-0.927-0.137-4.615-0.75-5.537-0.898-0.739-0.119-1.739-0.264-2.323-0.581-0.82-0.462-3.025 0.26-2.148 0.746" fill="#f89a83"/></g><g transform="translate(118.15 185.71)"><path d="m0 0c0.613 0.133 1.232 0.259 1.873 0.277 0.517 0.015 1.025-0.151 1.191-0.545 0.135-0.321-0.144-0.748-0.648-0.764-0.56-0.015-1.116-0.105-1.657-0.203-0.408-0.073-3.13 0.53-3.335 0.779-0.224 0.264 2.085 0.351 2.576 0.456" fill="#f89a83"/></g><g transform="translate(84.539 166.73)"><path d="m0 0c-1.49-0.111-2.126-0.288-4.124-0.408-1.996-0.122-4.011 0.775-4.137 0.585-0.125-0.192 1.433-1.739 2.299-2.576 0.87-0.835 1.923-2.988 2.837-1.74 0.92 1.249 2.006 2.292 2.591 2.94 0.582 0.647 1.419 1.531 1.419 1.531l-0.885-0.332z" fill="#f46d57"/></g><g transform="translate(147.75 89.212)"><path d="m0 0s2.259 2.22 0.746-1.141c-1.522-3.358-4.731-10.051-9.332-11.827-4.606-1.769-12.809-4.964-12.159-5.556 0.65-0.594 10.159 0.769 14.776 4.333 4.619 3.564 9.679 11.546 10.433 17.198 0.751 5.647-0.144 5.148-1.18 3.807-1.036-1.34-0.663-0.007-0.663-0.007l-2.621-6.807z" fill="#f46d57"/></g><g transform="translate(182.54 163.75)"><path d="m0 0s-0.665 2.898-3.934 2.562c-3.27-0.338-5.184-4.172-5.184-4.172l9.118 1.61z" fill="#ed1c24"/></g><g transform="translate(131.2 181.76)"><path d="m0 0c-1.08 0.251-2.635 0.035-1.777-0.719 0.856-0.751 0.82-2.833 0.82-2.833s1.079 0.841 1.375 2.082c0.297 1.239-0.418 1.47-0.418 1.47" fill="#ed1c24"/></g><g transform="translate(153.38 154.59)"><path d="m0 0c0.643-0.185 9.372 4.309 9.557 1.249 0.177-3.061-0.563-6.49-1.324-5.749-0.761 0.736-0.386 3.154-2.447 3.316-2.065 0.159-5.786 1.184-5.786 1.184" fill="#fff"/></g><g transform="translate(128.05 149.14)"><path d="m0 0s8.286-0.366 4.013-2.188c-4.275-1.825-8.041-1.007-12.898-1.48-4.849-0.48-7.175-1.57-10.733-2.98-3.559-1.408-8.856 1.085-1.631 3.06 7.228 1.981 11.321 0.923 15.083 1.732 3.767 0.809 6.166 1.856 6.166 1.856" fill="#fff"/></g><g transform="translate(158.55 132.41)"><path d="m0 0c1.211 0.024 3.023-1.033 0.064-3.539-2.96-2.511-3.464-9.725-3.793-5.81-0.329 3.914-0.537 5.862 1.234 8.237 1.769 2.375 2.495 1.112 2.495 1.112" fill="#fff"/></g><g transform="translate(89.199 64.76)"><path d="m0 0s-0.441-3.974-1.725-3.638c-1.282 0.332-9.344 1.603-9.344 1.603s2.26-5.182 4.609-8.274c2.353-3.095 8.377-8.044 10.156-8.34 1.778-0.299 2.083 2.353 2.083 2.353l-4.516 5.537-0.086 5.123-1.177 5.636z" fill="#ed1c24"/></g><g transform="translate(77.758 69.358)"><path d="m0 0s-1.902 4.174-4.274 3.535c-2.371-0.632-4.757-3.476-1.626-4.41 2.417-0.717 7.104-10.752 10.039-13.423 2.942-2.674 5.219-2.438 5.219-2.438s-2.148 5.752-4.735 7.923c-2.595 2.161-6.904 5.367-7.273 7.044-0.371 1.67-1.608 4.373-0.054 3.04 1.559-1.341 1.869-2.442 3.873-4.51 0.429-0.443-1.169 3.239-1.169 3.239" fill="#fff"/></g><g transform="translate(55.574 121.01)"><path d="m0 0s-0.803-12.54 0.037-21.966c0.848-9.418 2.685-20.621 3.057-13.385 0.371 7.243 2.555 9.629 0.664 12.89-1.894 3.262-2.62 3.764-1.516 4.887 1.105 1.123 2.946 2.349 1.948 3.863-0.999 1.515-3.847 4.185-3.658 7.761 0.19 3.582-0.532 5.95-0.532 5.95" fill="#ed1c24"/></g><g transform="translate(57.772 98.512)"><path d="m0 0c0.473-0.085 1.036-0.846 1.017-1.755-0.007-0.28-0.014-0.561-0.042-0.842-0.059-0.694-0.51-1.034-0.877-0.975-0.39 0.07-0.85 0.595-0.949 1.311-0.037 0.274-0.06 0.554-0.076 0.839-0.052 0.908 0.458 1.5 0.927 1.422" fill="#f46d57"/></g><g transform="translate(56.76 106.93)"><path d="m0 0c0.208 0.484 0.65 0.709 1.169 0.539 0.253-0.084 0.476-0.255 0.613-0.487 0.189-0.31 0.159-0.591 0.026-0.905 0.061 0.148-0.008-0.1-0.011-0.114-0.004-0.015-0.008-0.027-0.008-0.034v-0.048c-0.027-0.51-0.4-0.849-0.919-0.805-0.517 0.048-0.949 0.466-0.99 0.983-0.028 0.295 0.007 0.598 0.12 0.871" fill="#f46d57"/></g><g transform="translate(90.746 50.488)"><path d="m0 0c1.241 1.935 2.035 0.421 1.454 4.495-0.58 4.07-3.175 19.731-0.8 30.014 2.377 10.29 3.211 15.41 2.618 19.233-0.594 3.815-3.305 13.086-1.486 18.608 1.815 5.518 0.465 14.558 0.362 18.132-0.102 3.575 1.911 6.972 1.948 7.781 0.032 0.808 1.04 1.592 1.04 1.592 0.648-0.628 1.396 0.487 0.054-3.09-1.339-3.574-0.348-7.77-0.337-12.618 0.004-4.853 1.278-7.678-0.068-11.147-0.159-0.412-0.292-0.899-0.404-1.444 0.003-0.018 0.131-1.588 0.88-1.699 0.758-0.111 1.079 0.406 1.079 0.406l1.448-5.381-1.876-3.247s-0.571 0.757-0.964 1.385c-0.394 0.632-0.639-1.149-0.639-1.156 0.295-2.526 0.79-5.138 1.486-7.528 1.951-6.733 0.438-10.453 0.148-15.528-0.299-5.063-1.234-17.2-1.291-21.356-0.052-4.151-0.498-6.973-1.248-9.149-0.745-2.186 4.637-13.142 2.626-12.281-2.017 0.853-7.271 2.046-6.03 3.978" fill="#fbcbbb"/></g><g transform="translate(95.884 150.34)"><path d="m0 0c2.22-0.578 5.609-0.877 4.058-2.375-1.55-1.494-2.64-1.466-3.188-2.08-1.169-1.294-3.5-6.835-4.475-2.402-0.696 3.143-7.694 8.704-2.606 6.737 1.618-0.624 6.211 0.12 6.211 0.12" fill="#fff"/></g><g transform="translate(168.93 178.88)"><path d="m0 0c-0.946-0.046-3.753-0.654-1.657-0.916 2.098-0.264 4.401-0.019 3.657 0.462-0.744 0.48-2 0.454-2 0.454" fill="#f89a83"/></g><g transform="translate(157.48 179.85)"><path d="m0 0c-0.946-0.05-3.753-0.655-1.658-0.916 2.096-0.264 4.406-0.022 3.662 0.458-0.741 0.484-2.004 0.458-2.004 0.458" fill="#fff"/></g><g transform="translate(183.76 172.83)"><path d="m0 0s2.273 1.751 3.659 2.009c1.379 0.261 6.656-0.164 3.377-0.731-3.272-0.574-2.966-0.131-4.618-0.635-1.653-0.503-2.418-0.643-2.418-0.643" fill="#fff"/></g><g transform="translate(58.861 85.588)"><path d="m0 0c0.802-1.259 1.524-0.665 1.838-0.277 0.053 0.074 0.105 0.151 0.159 0.225 0.003 0.004 0.007 0.007 0.007 0.007 0.707 0.979 1.548 1.844 2.148 2.401 1.673 1.563 2.009 1.906 2.009 1.906s1.154 2.065 1.952 0.887c0.798-1.175-0.364-4.259 0.139-8.167 0.511-3.908 2.369-4.554 5.121-6.5 2.757-1.951-0.647-1.592-2.181-1.448-1.537 0.147-0.772-4.303-0.772-4.303s-2.047 2.596-4.241 5.178c0 0-0.007 0.004-0.007 0.011-0.487 0.573-0.982 1.149-1.468 1.688-0.874 0.935-1.199 2.172-1.939 2.382-2.966 0.835-1.993 0.964-3.284 3.631-1.289 2.66-1.758 7.35-1.758 7.35s0.597-2.319 2.277-4.971" fill="#fbcbbb"/></g></g></g></g></svg>
