<?xml version="1.0" encoding="UTF-8" standalone="no"?>
<!-- Created with Inkscape (http://www.inkscape.org/) -->

<svg
   xmlns:dc="http://purl.org/dc/elements/1.1/"
   xmlns:cc="http://creativecommons.org/ns#"
   xmlns:rdf="http://www.w3.org/1999/02/22-rdf-syntax-ns#"
   xmlns:svg="http://www.w3.org/2000/svg"
   xmlns="http://www.w3.org/2000/svg"
   xmlns:sodipodi="http://sodipodi.sourceforge.net/DTD/sodipodi-0.dtd"
   xmlns:inkscape="http://www.inkscape.org/namespaces/inkscape"
   id="svg2"
   version="1.1"
   inkscape:version="0.91 r13725"
   width="527.00391"
   height="100"
   sodipodi:docname="logo2-english.svg"
   inkscape:export-filename="C:\Users\user\Pictures\robologowb.png"
   inkscape:export-xdpi="237.23228"
   inkscape:export-ydpi="237.23228">
  <metadata
     id="metadata8">
    <rdf:RDF>
      <cc:Work
         rdf:about="">
        <dc:format>image/svg+xml</dc:format>
        <dc:type
           rdf:resource="http://purl.org/dc/dcmitype/StillImage" />
        <dc:title></dc:title>
      </cc:Work>
    </rdf:RDF>
  </metadata>
  <defs
     id="defs6" />
  <sodipodi:namedview
     pagecolor="#234c52"
     bordercolor="#666666"
     borderopacity="1"
     objecttolerance="10"
     gridtolerance="10"
     guidetolerance="10"
     inkscape:pageopacity="0"
     inkscape:pageshadow="2"
     inkscape:window-width="1366"
     inkscape:window-height="712"
     id="namedview4"
     showgrid="false"
     inkscape:zoom="1.8101934"
     inkscape:cx="38.013509"
     inkscape:cy="0.61054806"
     inkscape:window-x="0"
     inkscape:window-y="0"
     inkscape:window-maximized="1"
     inkscape:current-layer="svg2"
     fit-margin-top="0"
     fit-margin-left="0"
     fit-margin-right="0"
     fit-margin-bottom="0" />
  <g
     id="g3342"
     transform="matrix(1.2520316,0,0,1.2520316,-12.520316,-17.691036)">
    <circle
       r="36.935066"
       cy="52.06493"
       cx="47.935066"
       id="path2991"
       style="fill:#2b7b73;fill-opacity:1;stroke:#e0a650;stroke-width:2;stroke-miterlimit:4;stroke-dasharray:none;stroke-opacity:1" />
    <path
       inkscape:connector-curvature="0"
       id="rect3001"
       d="m 37.615978,28.226209 c -0.268655,0.0045 -0.547689,0.09624 -0.75,0.3125 l -0.21875,0.25 c -0.404623,0.432512 -0.418808,1.112459 0,1.53125 l 5.5625,5.5625 -14.78125,0 c -1.786562,0 -3.21875,1.432188 -3.21875,3.21875 l 0,18.6875 c 0,1.786562 1.432188,3.21875 3.21875,3.21875 l 41.21875,0 c 1.786562,0 3.25,-1.432188 3.25,-3.21875 l 0,-18.6875 c 0,-1.786562 -1.463438,-3.21875 -3.25,-3.21875 l -13.90625,0 5.4375,-5.3125 c 0.423266,-0.414179 0.409224,-1.103192 0,-1.53125 l -0.25,-0.25 c -0.409224,-0.428058 -1.076734,-0.445429 -1.5,-0.03125 l -7.25,7.125 -5.46875,0 -7.375,-7.34375 c -0.209404,-0.209396 -0.450095,-0.316977 -0.71875,-0.3125 z m -6.4375,35.3125 c -0.974488,0 -1.78125,0.806762 -1.78125,1.78125 0,0.974488 0.806762,1.75 1.78125,1.75 l 33,0 c 0.974488,0 1.75,-0.775512 1.75,-1.75 0,-0.974488 -0.775512,-1.78125 -1.75,-1.78125 l -33,0 z m 0,4.46875 c -0.974488,0 -1.78125,0.806762 -1.78125,1.78125 0,0.974488 0.806762,1.75 1.78125,1.75 l 12.25,0 c -0.06795,0.282059 -0.09375,0.571496 -0.09375,0.875 0,2.060734 1.658016,3.71875 3.71875,3.71875 l 2,0 c 2.060734,0 3.71875,-1.658016 3.71875,-3.71875 0,-0.303504 -0.05705,-0.592941 -0.125,-0.875 l 11.53125,0 c 0.974488,0 1.75,-0.775512 1.75,-1.75 0,-0.974488 -0.775512,-1.78125 -1.75,-1.78125 l -33,0 z"
       style="fill:#234c52;fill-opacity:1;fill-rule:nonzero;stroke:#e0a650;stroke-width:3;stroke-linejoin:round;stroke-miterlimit:4;stroke-dasharray:none;stroke-opacity:1" />
    <path
       inkscape:connector-curvature="0"
       style="fill:#234c52;fill-opacity:1;fill-rule:nonzero;stroke:none"
       d="m 37.615978,28.226209 c -0.268655,0.0045 -0.547689,0.09624 -0.75,0.3125 l -0.21875,0.25 c -0.404623,0.432512 -0.418808,1.112459 0,1.53125 l 5.5625,5.5625 -14.78125,0 c -1.786562,0 -3.21875,1.432188 -3.21875,3.21875 l 0,18.6875 c 0,1.786562 1.432188,3.21875 3.21875,3.21875 l 41.21875,0 c 1.786562,0 3.25,-1.432188 3.25,-3.21875 l 0,-18.6875 c 0,-1.786562 -1.463438,-3.21875 -3.25,-3.21875 l -13.90625,0 5.4375,-5.3125 c 0.423266,-0.414179 0.409224,-1.103192 0,-1.53125 l -0.25,-0.25 c -0.409224,-0.428058 -1.076734,-0.445429 -1.5,-0.03125 l -7.25,7.125 -5.46875,0 -7.375,-7.34375 c -0.209404,-0.209396 -0.450095,-0.316977 -0.71875,-0.3125 z m -6.4375,35.3125 c -0.974488,0 -1.78125,0.806762 -1.78125,1.78125 0,0.974488 0.806762,1.75 1.78125,1.75 l 33,0 c 0.974488,0 1.75,-0.775512 1.75,-1.75 0,-0.974488 -0.775512,-1.78125 -1.75,-1.78125 l -33,0 z m 0,4.46875 c -0.974488,0 -1.78125,0.806762 -1.78125,1.78125 0,0.974488 0.806762,1.75 1.78125,1.75 l 12.25,0 c -0.06795,0.282059 -0.09375,0.571496 -0.09375,0.875 0,2.060734 1.658016,3.71875 3.71875,3.71875 l 2,0 c 2.060734,0 3.71875,-1.658016 3.71875,-3.71875 0,-0.303504 -0.05705,-0.592941 -0.125,-0.875 l 11.53125,0 c 0.974488,0 1.75,-0.775512 1.75,-1.75 0,-0.974488 -0.775512,-1.78125 -1.75,-1.78125 l -33,0 z"
       id="path3895" />
    <ellipse
       ry="5.0257249"
       rx="4.9675322"
       cy="48.435566"
       cx="34.626625"
       id="path3005"
       style="opacity:0.5;fill:#000000;fill-opacity:1;stroke:none" />
    <ellipse
       ry="1.7590039"
       rx="1.8628247"
       cy="47.43042"
       cx="33.50893"
       id="path3007"
       style="fill:#e0a650;fill-opacity:1;stroke:none" />
    <ellipse
       ry="5.0257249"
       rx="4.9675322"
       cy="48.435566"
       cx="60.126629"
       style="opacity:0.5;fill:#000000;fill-opacity:1;stroke:none"
       id="path3009" />
    <ellipse
       ry="1.7590039"
       rx="1.8628247"
       cy="47.43042"
       cx="59.00893"
       style="fill:#e0a650;fill-opacity:1;stroke:none"
       id="path3011" />
    <text
       sodipodi:linespacing="125%"
       id="text2992"
       y="42.721317"
       x="95.443474"
       style="font-style:normal;font-weight:normal;font-size:42.20449066px;line-height:125%;font-family:quantico;-inkscape-font-specification:quantico;letter-spacing:0px;word-spacing:0px;fill:#e0a650;fill-opacity:1;stroke:none"
       xml:space="preserve"><tspan
         style="font-size:35.17041016px;fill:#e0a650;fill-opacity:1"
         y="42.721317"
         x="95.443474"
         id="tspan2994"
         sodipodi:role="line">Robotics Club of</tspan><tspan
         style="font-size:35.17041016px;fill:#e0a650;fill-opacity:1"
         id="tspan2996"
         y="86.684326"
         x="95.443474"
         sodipodi:role="line">Estonian IT College</tspan></text>
  </g>
</svg>
