<svg xmlns="http://www.w3.org/2000/svg" viewBox="0 0 1255.23668 160.39843"  height="100" width="470"><defs><style>.a{fill:#2ad8da;}</style></defs><path class="a" d="M0,155.52159V5.08315H38.69987q17.8426,0,28.3237,2.59671a50.479,50.479,0,0,1,18.57,8.715,42.07525,42.07525,0,0,1,13.0209,15.3028,42.72,42.72,0,0,1,4.61716,19.45043q0,22.82615-16.23655,36.21166Q70.7559,100.74168,42.95243,100.74168q-2.90529,0-4.35749-.05336c-0.96932-.032-1.8675-0.08537-2.69631-0.153v54.98623H0ZM40.77368,32.683H35.89863V72.83238h6.53624q13.59,0,20.74878-5.23966,7.16052-5.23433,7.15874-15.09293,0-10.27123-7.0538-15.04669Q56.23211,32.683,40.77368,32.683Z"/><path class="a" d="M116.84563,155.52159V5.08315H155.5455q18.56826,0,28.78969,2.4402a50.54894,50.54894,0,0,1,18.104,8.14229,41.95732,41.95732,0,0,1,13.0209,14.89018,40.01,40.01,0,0,1,4.61716,18.72477q0,14.21966-7.21032,24.9Q205.65311,84.868,192.06485,90.88485l45.85683,64.63674h-40.98L156.7905,96.48734h-5.08493v59.03425H116.84563ZM157.61931,32.4731h-5.91374V74.18054h7.57492q13.59,0,20.74878-5.49578,7.16052-5.50111,7.15874-15.77235,0-10.7888-6.95065-15.61227Q173.28495,32.47133,157.61931,32.4731Z"/><path class="a" d="M407.85922,155.52159V5.08315h92.64919V36.10494H442.71917V63.28858h49.48867V94.1005H442.71917V123.8773H501.339v31.64429H407.85922Z"/><path class="a" d="M521.16026,155.52159V5.08315h35.48244V70.55226L606.33947,5.08315H649.0838L592.33324,76.67053l61.213,78.85106H610.17762l-53.53491-69.3037v69.3037H521.16026Z"/><path class="a" d="M662.13966,114.79671A121.73825,121.73825,0,0,0,682.73254,124.916a56.66258,56.66258,0,0,0,18.93464,3.422q9.33748,0,14.99155-4.09782,5.65318-4.09782,5.65407-10.52913,0-9.23611-20.12628-20.74878-3.21743-1.8675-4.98-2.90618l-10.16808-5.70565q-14.8386-8.40374-21.99556-18.988A41.782,41.782,0,0,1,657.88416,41.398q0-18.15741,13.695-29.77679Q685.2759,0,706.95843,0a88.736,88.736,0,0,1,17.32681,1.8675A160.96415,160.96415,0,0,1,745.034,7.67986V42.95243A119.698,119.698,0,0,0,724.3884,32.36995q-9.75367-3.735-16.59938-3.735-7.5767,0-11.93242,3.269a10.50328,10.50328,0,0,0-4.35749,8.8715,11.96175,11.96175,0,0,0,2.59493,7.36683,23.67543,23.67543,0,0,0,7.78124,6.225l17.63629,9.75011q22.10049,12.24544,29.72522,22.61983,7.62472,10.37261,7.62472,24.58693,0,21.99911-14.99155,35.5358-14.99333,13.53669-39.78836,13.53846a104.30616,104.30616,0,0,1-18.25878-1.76434,175.341,175.341,0,0,1-21.68431-5.49933Z"/><path class="a" d="M774.37577,155.52159V5.08315h38.69987q17.8426,0,28.3237,2.59671a50.479,50.479,0,0,1,18.57,8.715,42.07525,42.07525,0,0,1,13.0209,15.3028,42.72,42.72,0,0,1,4.61716,19.45043q0,22.82615-16.23655,36.21166-16.23922,13.38195-44.04269,13.38195-2.90529,0-4.35749-.05336c-0.96932-.032-1.8675-0.08537-2.69631-0.153v54.98623H774.37577ZM815.14946,32.683H810.2744V72.83238h6.53624q13.59,0,20.74878-5.23966,7.16052-5.23433,7.15874-15.09293,0-10.27123-7.0538-15.04669Q830.60789,32.683,815.14946,32.683Z"/><path class="a" d="M892.36957,155.52159V5.08315h92.64919V36.10494H927.22951V63.28858H976.72V94.1005H927.22951V123.8773h58.62162v31.64429H892.36957Z"/><path class="a" d="M1007.91735,155.52159V5.08315H1046.619q18.56826,0,28.78791,2.4402a50.55747,50.55747,0,0,1,18.10583,8.14229,41.9349,41.9349,0,0,1,13.01912,14.89018,39.96743,39.96743,0,0,1,4.61716,18.72477q0,14.21966-7.21032,24.9-7.21387,10.68742-20.80214,16.70432l45.85861,64.63674H1088.0134L1047.864,96.48734h-5.08671v59.03425h-34.85994ZM1048.69281,32.4731h-5.91552V74.18054h7.5767q13.59,0,20.74878-5.49578,7.16052-5.50111,7.157-15.77235,0-10.7888-6.95065-15.61227Q1064.35666,32.47133,1048.69281,32.4731Z"/><path class="a" d="M1169.6497,155.52159V36.52113h-47.82926V5.08315h133.41625v31.438h-49.69191V155.52159H1169.6497Z"/><path class="a" d="M311.35343,35.09161a45.21256,45.21256,0,1,1-45.21256,45.21254,45.2638,45.2638,0,0,1,45.21256-45.21254m0-34.8818a80.0943,80.0943,0,1,0,80.0943,80.09433A80.09437,80.09437,0,0,0,311.35343.20982h0Z"/></svg>
